<svg xmlns="http://www.w3.org/2000/svg" xmlns:xlink="http://www.w3.org/1999/xlink" width="500" zoomAndPan="magnify" viewBox="0 0 375 374.999991" height="500" preserveAspectRatio="xMidYMid meet" version="1.0"><defs><g/><clipPath id="511232ef41"><path d="M 15.585938 231.269531 L 352.480469 231.269531 L 352.480469 238.710938 L 15.585938 238.710938 Z M 15.585938 231.269531 " clip-rule="nonzero"/></clipPath><clipPath id="cb771f8c5d"><path d="M 16.800781 131.25 L 353.699219 131.25 L 353.699219 138.691406 L 16.800781 138.691406 Z M 16.800781 131.25 " clip-rule="nonzero"/></clipPath></defs><g fill="#ffffff" fill-opacity="1"><g transform="translate(20.779175, 209.72965)"><g><path d="M 3.921875 -36.46875 C 3.921875 -41.800781 4.453125 -45.515625 5.515625 -47.609375 C 7.035156 -50.671875 9.539062 -52.203125 13.03125 -52.203125 C 15.28125 -52.203125 17 -51.765625 18.1875 -50.890625 C 19.382812 -50.015625 20.160156 -49.054688 20.515625 -48.015625 C 21.171875 -46.085938 21.5625 -44.25 21.6875 -42.5 C 21.820312 -40.75 21.890625 -38.757812 21.890625 -36.53125 L 21.890625 -32.234375 L 17.4375 -32.234375 L 17.4375 -40.203125 C 17.4375 -43.128906 17.140625 -45.265625 16.546875 -46.609375 C 15.960938 -47.960938 14.796875 -48.640625 13.046875 -48.640625 C 11.304688 -48.640625 10.078125 -47.765625 9.359375 -46.015625 C 8.648438 -44.265625 8.296875 -41.238281 8.296875 -36.9375 L 8.296875 -15.90625 C 8.296875 -11.039062 8.609375 -7.671875 9.234375 -5.796875 C 9.859375 -3.921875 11.085938 -2.984375 12.921875 -2.984375 C 14.753906 -2.984375 15.984375 -3.929688 16.609375 -5.828125 C 17.234375 -7.722656 17.546875 -11.0625 17.546875 -15.84375 L 17.546875 -22.359375 L 13.125 -22.359375 L 13.125 -26.078125 L 21.890625 -26.078125 L 21.890625 0 L 19.015625 0 L 18.546875 -2.984375 C 17.828125 -1.773438 16.976562 -0.875 16 -0.28125 C 15.019531 0.300781 13.757812 0.59375 12.21875 0.59375 C 9.320312 0.59375 7.210938 -0.671875 5.890625 -3.203125 C 4.578125 -5.734375 3.921875 -9.863281 3.921875 -15.59375 Z M 3.921875 -36.46875 "/></g></g></g><g fill="#ffffff" fill-opacity="1"><g transform="translate(51.024094, 209.72965)"><g><path d="M 18.046875 -51.5625 L 22.40625 -51.5625 L 22.40625 -13.25 C 22.40625 -8.40625 21.789062 -4.882812 20.5625 -2.6875 C 19.332031 -0.488281 16.941406 0.609375 13.390625 0.609375 C 9.835938 0.609375 7.429688 -0.488281 6.171875 -2.6875 C 4.910156 -4.894531 4.28125 -8.414062 4.28125 -13.25 L 4.28125 -51.5625 L 8.640625 -51.5625 L 8.640625 -13.390625 C 8.640625 -9.816406 8.796875 -7.429688 9.109375 -6.234375 C 9.691406 -4.066406 11.0625 -2.984375 13.21875 -2.984375 C 14.96875 -2.984375 16.207031 -3.484375 16.9375 -4.484375 C 17.675781 -5.492188 18.046875 -8.453125 18.046875 -13.359375 Z M 18.046875 -51.5625 "/></g></g></g><g fill="#ffffff" fill-opacity="1"><g transform="translate(81.913544, 209.72965)"><g><path d="M 5.21875 -51.5625 L 9.578125 -51.5625 L 9.578125 0 L 5.21875 0 Z M 5.21875 -51.5625 "/></g></g></g><g fill="#ffffff" fill-opacity="1"><g transform="translate(100.879166, 209.72965)"><g><path d="M 1.171875 -51.5625 L 15.734375 -51.5625 L 15.734375 -48.171875 L 10.90625 -48.171875 L 10.90625 0 L 6.5625 0 L 6.5625 -48.171875 L 1.171875 -48.171875 Z M 1.171875 -51.5625 "/></g></g></g><g fill="#ffffff" fill-opacity="1"><g transform="translate(121.98346, 209.72965)"><g><path d="M 9.9375 -51.5625 L 14.390625 -51.5625 L 23.5625 0 L 19.34375 0 L 17.640625 -10.453125 L 7.328125 -10.453125 L 5.765625 0 L 1.640625 0 Z M 17.046875 -14.0625 L 12.3125 -43.25 L 12.25 -43.25 L 7.875 -14.0625 Z M 17.046875 -14.0625 "/></g></g></g><g fill="#ffffff" fill-opacity="1"><g transform="translate(151.378776, 209.72965)"><g><path d="M 18.25 -39.109375 C 18.25 -41.710938 18.125 -43.617188 17.875 -44.828125 C 17.632812 -46.035156 17.226562 -46.851562 16.65625 -47.28125 C 16.082031 -47.71875 15.171875 -47.9375 13.921875 -47.9375 L 9.03125 -47.9375 L 9.03125 -28.359375 L 13.59375 -28.359375 C 15.082031 -28.359375 16.09375 -28.613281 16.625 -29.125 C 17.164062 -29.632812 17.570312 -30.476562 17.84375 -31.65625 C 18.113281 -32.832031 18.25 -35.191406 18.25 -38.734375 Z M 4.6875 -51.5625 L 13.453125 -51.5625 C 16.984375 -51.5625 19.34375 -50.820312 20.53125 -49.34375 C 21.4375 -48.226562 22.007812 -46.863281 22.25 -45.25 C 22.5 -43.632812 22.625 -41.296875 22.625 -38.234375 C 22.625 -35.171875 22.265625 -32.664062 21.546875 -30.71875 C 20.835938 -28.769531 19.613281 -27.5625 17.875 -27.09375 C 18.550781 -26.976562 19.125 -26.769531 19.59375 -26.46875 C 20.0625 -26.164062 20.484375 -25.65625 20.859375 -24.9375 C 22.015625 -22.6875 22.59375 -17.15625 22.59375 -8.34375 C 22.59375 -4.695312 22.625 -2.59375 22.6875 -2.03125 C 22.757812 -1.476562 22.941406 -0.800781 23.234375 0 L 18.890625 0 C 18.578125 -0.582031 18.390625 -1.6875 18.328125 -3.3125 C 18.273438 -4.945312 18.25 -7.554688 18.25 -11.140625 L 18.25 -16.8125 C 18.25 -20.40625 18.03125 -22.691406 17.59375 -23.671875 C 17.15625 -24.648438 15.851562 -25.140625 13.6875 -25.140625 L 9.046875 -25.4375 L 9.046875 0 L 4.6875 0 Z M 4.6875 -51.5625 "/></g></g></g><g fill="#ffffff" fill-opacity="1"><g transform="translate(182.033856, 209.72965)"><g/></g></g><g fill="#ffffff" fill-opacity="1"><g transform="translate(196.106907, 209.72965)"><g><path d="M 33.015625 -51.5625 L 37.15625 -51.5625 L 30.90625 0 L 26.609375 0 L 20.21875 -42.421875 L 13.359375 0 L 9.34375 0 L 2.046875 -51.5625 L 6.328125 -51.5625 L 11.71875 -9.4375 L 18.171875 -51.5625 L 21.796875 -51.5625 L 28.6875 -9.4375 Z M 33.015625 -51.5625 "/></g></g></g><g fill="#ffffff" fill-opacity="1"><g transform="translate(239.506128, 209.72965)"><g><path d="M 17.703125 -37.5 C 17.703125 -41.601562 17.398438 -44.484375 16.796875 -46.140625 C 16.203125 -47.804688 14.988281 -48.640625 13.15625 -48.640625 C 11.320312 -48.640625 10.050781 -47.78125 9.34375 -46.0625 C 8.644531 -44.351562 8.296875 -41.507812 8.296875 -37.53125 L 8.296875 -15.203125 C 8.296875 -10.460938 8.535156 -7.425781 9.015625 -6.09375 C 9.503906 -4.769531 10.046875 -3.921875 10.640625 -3.546875 C 11.242188 -3.171875 12.03125 -2.984375 13 -2.984375 C 13.976562 -2.984375 14.757812 -3.171875 15.34375 -3.546875 C 15.9375 -3.921875 16.476562 -4.765625 16.96875 -6.078125 C 17.457031 -7.398438 17.703125 -10.441406 17.703125 -15.203125 Z M 3.921875 -37.15625 C 3.921875 -43.382812 4.703125 -47.445312 6.265625 -49.34375 C 7.828125 -51.25 10.226562 -52.203125 13.46875 -52.203125 C 16.71875 -52.203125 18.957031 -51.148438 20.1875 -49.046875 C 21.007812 -47.617188 21.523438 -45.957031 21.734375 -44.0625 C 21.953125 -42.164062 22.0625 -39.863281 22.0625 -37.15625 L 22.0625 -15.203125 C 22.0625 -10.734375 21.789062 -7.582031 21.25 -5.75 C 20.71875 -3.925781 20.117188 -2.625 19.453125 -1.84375 C 18.046875 -0.21875 15.90625 0.59375 13.03125 0.59375 C 8.757812 0.59375 6.085938 -1.253906 5.015625 -4.953125 C 4.285156 -7.367188 3.921875 -10.785156 3.921875 -15.203125 Z M 3.921875 -37.15625 "/></g></g></g><g fill="#ffffff" fill-opacity="1"><g transform="translate(269.692459, 209.72965)"><g><path d="M 18.25 -39.109375 C 18.25 -41.710938 18.125 -43.617188 17.875 -44.828125 C 17.632812 -46.035156 17.226562 -46.851562 16.65625 -47.28125 C 16.082031 -47.71875 15.171875 -47.9375 13.921875 -47.9375 L 9.03125 -47.9375 L 9.03125 -28.359375 L 13.59375 -28.359375 C 15.082031 -28.359375 16.09375 -28.613281 16.625 -29.125 C 17.164062 -29.632812 17.570312 -30.476562 17.84375 -31.65625 C 18.113281 -32.832031 18.25 -35.191406 18.25 -38.734375 Z M 4.6875 -51.5625 L 13.453125 -51.5625 C 16.984375 -51.5625 19.34375 -50.820312 20.53125 -49.34375 C 21.4375 -48.226562 22.007812 -46.863281 22.25 -45.25 C 22.5 -43.632812 22.625 -41.296875 22.625 -38.234375 C 22.625 -35.171875 22.265625 -32.664062 21.546875 -30.71875 C 20.835938 -28.769531 19.613281 -27.5625 17.875 -27.09375 C 18.550781 -26.976562 19.125 -26.769531 19.59375 -26.46875 C 20.0625 -26.164062 20.484375 -25.65625 20.859375 -24.9375 C 22.015625 -22.6875 22.59375 -17.15625 22.59375 -8.34375 C 22.59375 -4.695312 22.625 -2.59375 22.6875 -2.03125 C 22.757812 -1.476562 22.941406 -0.800781 23.234375 0 L 18.890625 0 C 18.578125 -0.582031 18.390625 -1.6875 18.328125 -3.3125 C 18.273438 -4.945312 18.25 -7.554688 18.25 -11.140625 L 18.25 -16.8125 C 18.25 -20.40625 18.03125 -22.691406 17.59375 -23.671875 C 17.15625 -24.648438 15.851562 -25.140625 13.6875 -25.140625 L 9.046875 -25.4375 L 9.046875 0 L 4.6875 0 Z M 4.6875 -51.5625 "/></g></g></g><g fill="#ffffff" fill-opacity="1"><g transform="translate(300.34754, 209.72965)"><g><path d="M 4.6875 -51.5625 L 9.046875 -51.5625 L 9.046875 -3.453125 L 18.1875 -3.453125 L 18.1875 0 L 4.6875 0 Z M 4.6875 -51.5625 "/></g></g></g><g fill="#ffffff" fill-opacity="1"><g transform="translate(323.268246, 209.72965)"><g><path d="M 18.1875 -37.328125 C 18.1875 -41.078125 17.753906 -43.78125 16.890625 -45.4375 C 16.035156 -47.101562 14.691406 -47.9375 12.859375 -47.9375 L 9 -47.9375 L 9 -3.75 L 12.59375 -3.75 C 15.019531 -3.75 16.601562 -4.851562 17.34375 -7.0625 C 17.925781 -8.875 18.21875 -11.585938 18.21875 -15.203125 Z M 4.65625 -51.5625 L 12.59375 -51.5625 C 17.226562 -51.5625 20.179688 -49.664062 21.453125 -45.875 C 22.191406 -43.664062 22.5625 -40.660156 22.5625 -36.859375 L 22.59375 -14.765625 C 22.59375 -9.390625 21.828125 -5.582031 20.296875 -3.34375 C 18.773438 -1.113281 16.148438 0 12.421875 0 L 4.65625 0 Z M 4.65625 -51.5625 "/></g></g></g><g clip-path="url(#511232ef41)"><path fill="#cc6607" d="M 15.585938 231.269531 L 352.457031 231.269531 L 352.457031 238.710938 L 15.585938 238.710938 Z M 15.585938 231.269531 " fill-opacity="1" fill-rule="nonzero"/></g><g clip-path="url(#cb771f8c5d)"><path fill="#cc6607" d="M 16.800781 131.25 L 353.675781 131.25 L 353.675781 138.691406 L 16.800781 138.691406 Z M 16.800781 131.25 " fill-opacity="1" fill-rule="nonzero"/></g></svg>